<?xml version="1.0" encoding="UTF-8" standalone="no"?><!DOCTYPE svg PUBLIC "-//W3C//DTD SVG 1.1//EN" "http://www.w3.org/Graphics/SVG/1.1/DTD/svg11.dtd"><svg width="32" height="32" viewBox="0 0 32 32" version="1.1" xmlns="http://www.w3.org/2000/svg" xmlns:xlink="http://www.w3.org/1999/xlink" xml:space="preserve" style="fill-rule:evenodd;clip-rule:evenodd;stroke-linejoin:round;stroke-miterlimit:1.41421;"><g><path d="M10.384,1.047c0,0 -0.034,4.229 -0.051,4.238c1.693,-0.899 3.624,-1.412 5.674,-1.422c3.341,0.02 6.363,1.376 8.555,3.558c2.209,2.199 3.575,5.238 3.575,8.594c0,3.356 -1.366,6.395 -3.575,8.594c-2.194,2.184 -5.219,3.54 -8.562,3.558c-3.343,-0.018 -6.368,-1.374 -8.562,-3.558c-2.209,-2.199 -3.575,-5.238 -3.575,-8.594c0,-0.067 0.051,-10.465 0.051,-10.465c-2.439,2.806 -3.914,6.464 -3.914,10.465c0,4.418 1.82,8.397 4.707,11.314c2.212,2.235 6.104,4.671 11.362,4.671c5.258,0 9.103,-2.559 11.224,-4.671c2.908,-2.896 4.707,-6.896 4.707,-11.314c0,-4.418 -1.774,-8.389 -4.707,-11.314c-2.938,-2.929 -9.048,-6.51 -16.909,-3.654Z" style="fill:#9c9f9f;fill-rule:nonzero;"/><path d="M25.918,20.32l-4.457,0c-1.653,1.953 -3.552,2.67 -5.461,2.692c-1.909,-0.022 -3.635,-0.8 -4.889,-2.049c-1.165,-1.16 -2.061,-2.973 -2.061,-4.82c0,-0.82 0,-3.113 0,-3.113l3.694,0l0,-3.814l-3.694,0l0,-7.644c-1.402,0.67 -2.691,1.537 -3.832,2.566c0,0 -0.029,11.802 -0.029,11.877c0,2.994 1.219,5.705 3.19,7.668c0.968,0.964 3.54,3.166 7.62,3.166c4.08,0 6.654,-2.202 7.622,-3.166c0.964,-0.96 1.748,-2.099 2.297,-3.363Z" style="fill:#f6882a;fill-rule:nonzero;"/></g></svg>
